<svg xmlns="http://www.w3.org/2000/svg" width="259" height="71" viewBox="0 0 259 71"><defs><style>.a{fill:none;}.b{fill:#22376c;}.c{fill:#87bc28;}.d{fill:#fcc100;}.e{fill:#d4102a;}.f{fill:#00993c;}</style></defs><g transform="translate(-37 -9)"><rect class="a" width="259" height="71" transform="translate(37 9)"/><g transform="translate(-120.594 -35.209)"><path class="b" d="M259.228,85.493v14.544H249.79V72.374h9.438v4.334A5.961,5.961,0,0,1,262.345,73,9.812,9.812,0,0,1,267,71.662q5.461,0,8.252,3.532t2.789,10.122v14.722h-9.438V85.612a4.531,4.531,0,0,0-1.365-3.651A4.727,4.727,0,0,0,264.1,80.8a5.446,5.446,0,0,0-3.384,1.127,4.187,4.187,0,0,0-1.485,3.562" transform="translate(1.777 0.378)"/><path class="b" d="M282.729,100.415h9.438V72.752h-9.438Zm-1.01-36.864a4.943,4.943,0,0,1,1.692-3.8,5.746,5.746,0,0,1,4.007-1.543,5.617,5.617,0,0,1,4.008,1.543,5.025,5.025,0,0,1,1.632,3.8,5.116,5.116,0,0,1-1.632,3.829,5.556,5.556,0,0,1-4.008,1.573,5.631,5.631,0,0,1-4.007-1.6,5.06,5.06,0,0,1-1.692-3.8" transform="translate(2.675)"/><path class="b" d="M307.093,85.493v14.544h-9.438V72.374h9.438v4.334A5.959,5.959,0,0,1,310.209,73a9.819,9.819,0,0,1,4.66-1.336q5.461,0,8.252,3.532t2.789,10.122v14.722h-9.438V85.612a4.531,4.531,0,0,0-1.365-3.651A4.728,4.728,0,0,0,311.96,80.8a5.445,5.445,0,0,0-3.383,1.127,4.187,4.187,0,0,0-1.485,3.562" transform="translate(3.123 0.378)"/><path class="b" d="M341.53,90.183l-3.5-.95a15.9,15.9,0,0,1-4.185-1.721,12.457,12.457,0,0,1-2.582-1.96,5.994,5.994,0,0,1-1.277-2.2,7.97,7.97,0,0,1-.475-1.9q-.031-.594-.03-1.544,0-3.2,3.355-5.728a12.807,12.807,0,0,1,7.925-2.524,18.255,18.255,0,0,1,4.363.5,14.348,14.348,0,0,1,3.859,1.573,7.582,7.582,0,0,1,2.849,3,9.324,9.324,0,0,1,1.039,4.483h-8.846q0-2.494-2.789-2.493-2.315,0-2.315,1.543,0,1.306,2.078,1.781l4.927,1.365a13.362,13.362,0,0,1,4.185,1.811,7.13,7.13,0,0,1,2.374,2.463,10.669,10.669,0,0,1,.92,2.256,7.63,7.63,0,0,1,.237,1.84,7.174,7.174,0,0,1-3.8,6.53,16.755,16.755,0,0,1-8.727,2.257,13.957,13.957,0,0,1-8.4-2.642,8.374,8.374,0,0,1-3.651-7.153h8.845a2.866,2.866,0,0,0,.8,1.959,3.071,3.071,0,0,0,2.4.89,3.97,3.97,0,0,0,2.048-.5,1.509,1.509,0,0,0,.861-1.336.982.982,0,0,0-.475-.89,8.918,8.918,0,0,0-2.018-.712" transform="translate(4.006 0.378)"/><path class="b" d="M367.683,94.16a5.914,5.914,0,0,0,3.324-1.069,5.413,5.413,0,0,0,2.2-2.789,7.687,7.687,0,0,0-4.927-1.425,3.553,3.553,0,0,0-2.731.861,2.685,2.685,0,0,0-.772,1.811,2.727,2.727,0,0,0,.742,1.722,2.662,2.662,0,0,0,2.167.89m-5.64-11.932L357.056,77.3q4.036-5.64,12.763-5.639a14.306,14.306,0,0,1,9.29,3q3.709,3,3.71,8.933v16.444h-9.439V97.069a8.188,8.188,0,0,1-3.413,2.611,10.287,10.287,0,0,1-4.007.891,11.987,11.987,0,0,1-7.777-2.315,8,8,0,0,1-2.849-6.589,6.953,6.953,0,0,1,3.086-6.026,14.109,14.109,0,0,1,8.252-2.166,13.217,13.217,0,0,1,6.589,1.484v-.831a4.287,4.287,0,0,0-1.513-3.354,5.021,5.021,0,0,0-3.413-1.336,7.639,7.639,0,0,0-6.293,2.789" transform="translate(4.745 0.378)"/><path class="b" d="M205.716,89.029a5.938,5.938,0,0,1-.825,1.034,5.626,5.626,0,1,1,0-7.945,5.7,5.7,0,0,1,1.15,1.634l8.967-1.308a12.788,12.788,0,0,0-3.854-6.56,14.545,14.545,0,0,0-10.236-3.944A14.271,14.271,0,0,0,190.8,75.884a13.359,13.359,0,0,0-4.2,10.207,13.288,13.288,0,0,0,4.2,10.15,14.266,14.266,0,0,0,10.121,3.944,14.541,14.541,0,0,0,10.236-3.944,12.789,12.789,0,0,0,3.682-5.881Z" transform="translate(0 0.386)"/><path class="c" d="M225.585,84.474Z" transform="translate(1.096 0.739)"/><path class="c" d="M226.562,82.052l-.007.011.007-.011" transform="translate(1.124 0.67)"/><path class="c" d="M226.521,82.113l0,0,0,0" transform="translate(1.123 0.672)"/><path class="c" d="M229.461,91.867a6.506,6.506,0,0,1-3.767-5.9c0-.088,0-.176.005-.263h0l0-.032,0-.036,0-.025c0-.081.01-.162.018-.243a12.888,12.888,0,0,1,12.844-11.825q.509,0,1.009.039a15.038,15.038,0,0,0-7.328-1.783,14.471,14.471,0,0,0-10.266,4.009A13.008,13.008,0,0,0,218.19,82.2a12.4,12.4,0,0,0,11.271,9.666" transform="translate(0.888 0.382)"/><path class="d" d="M225.516,85.319A6.507,6.507,0,1,1,234.8,91.79L236,99.926a14.6,14.6,0,0,0,6.448-3.526,13.4,13.4,0,0,0,4.317-10.3,13.466,13.466,0,0,0-4.332-10.354,15.276,15.276,0,0,0-3.061-2.21q-.5-.039-1.009-.039a12.888,12.888,0,0,0-12.844,11.825" transform="translate(1.094 0.43)"/><path class="d" d="M225.5,85.257l0,.036,0,.032h0l.005-.094,0,.025" transform="translate(1.094 0.76)"/><path class="e" d="M243.326,89.812c0-5.783-4.974-10.481-11.14-10.552a6.508,6.508,0,0,1,2.43,12.368l1.193,8.133a10.627,10.627,0,0,0,7.517-9.95" transform="translate(1.282 0.592)"/><path class="f" d="M229.526,91.607l-.052-.025A12.4,12.4,0,0,1,218.2,81.923l0-.007v.006a16.027,16.027,0,0,0-.467,3.959,13.482,13.482,0,0,0,4.273,10.3,14.33,14.33,0,0,0,6.344,3.51Z" transform="translate(0.876 0.667)"/><path class="f" d="M229.052,91.27" transform="translate(1.194 0.93)"/></g></g></svg>